<svg xmlns="http://www.w3.org/2000/svg" width="400" height="254.545"><path d="M27.039 57.727L.909 115.455l-.547 58.412-.546 58.413 28.484.765c22.215.597 28.938 1.353 30.547 3.434 10.155 13.139 50.244 25.867 50.244 15.953 0-.956.818-1.232 1.818-.614s1.818.121 1.818-1.105c0-1.225.485-1.744 1.077-1.151 3.575 3.575 11.399-8.256 8.442-12.768l-3.012-4.597 40.838.637c22.46.351 56.996.47 76.746.266l35.909-.373V124.545h9.091v108.182h13.637c12.922 0 13.637-.214 13.658-4.091.014-2.607 11.277-17.606 31.059-41.363 32.711-39.284 42.553-52.424 40.675-54.309-.628-.63-16.62-1.4-35.54-1.711-32.633-.535-34.398-.745-34.398-4.09 0-3.175-1.353-3.527-13.569-3.527h-13.568l-7.637-11.363c-4.2-6.25-9.996-14.393-12.879-18.095l-5.242-6.732 9.012-8.723c19.769-19.135 18.672-48.815-2.494-67.446C252.927 1.062 248.387.264 200.75.065l-42.568-.177v61.874c0 40.038-.642 61.874-1.818 61.874-2.616 0-2.394 70.464.247 78.365 7.288 21.806 40.355 29.705 57.72 13.787 9.741-8.93 11.04-15.414 11.084-55.333l.04-36.819h-20V94.304l4.977.575c3.854.446 7.142 3.655 14.559 14.212l9.58 13.636-.467 40-.468 40-5.048 8.588c-15.496 26.362-62.794 26.069-77.679-.48-6.539-11.663-8.289-86.716-2.017-86.447 5.825.249 5.844.304-22.681-63.561L99.091.107 76.13.053 53.169 0l-26.13 57.727M281.818 17.39v17.389l19.095-.571 19.095-.572-.004 45.965-.004 45.965 22.273-.51 22.272-.511.486-44.757.486-44.757 8.404-1.152c4.623-.633 12.381-1.152 17.242-1.152H400V0H281.818v17.39M231.22 37.555C241.399 46.766 232.639 60 216.364 60h-10.909V34.545h11.22c7.889 0 12.208.894 14.545 3.01M80.727 58.041c2.6 6.422 4.728 11.74 4.728 11.818 0 .078-4.408.141-9.795.141h-9.794l3.654-9.091c2.01-5 4.067-10.555 4.571-12.345 1.169-4.152 1.051-4.321 6.636 9.477m22.351 55.759l3.987 10.156-30.768-.614c-34.344-.686-31.984.549-26.056-13.638l2.535-6.068 23.157.004 23.158.004 3.987 10.156m-13.176 17.865c18.139 10.63 27.575 28.72 26.052 49.942-4.843 67.461-113.125 64.184-113.147-3.425-.008-25.452 20.928-52.771 39.377-51.382 1.759.133 3.561-.345 4.004-1.061 2.05-3.318 35.732 1.248 43.714 5.926m306.462-4.125c0 3.402-9.441 17.192-15.376 22.46-1.127 1-10.276 12.045-20.331 24.545-10.056 12.5-22.154 27.228-26.885 32.728-15.847 18.422-17.997 17.107 25.897 15.846l38.291-1.099.747 4.899c.412 2.695.871-19.442 1.021-49.192.176-35.03-.369-54.091-1.546-54.091-1 0-1.818 1.757-1.818 3.904m-355.523 6.262c-40.119 14.245-39.614 73.305.745 87.056 33.036 11.257 65.615-10.415 65.669-43.683.054-33.232-33.415-55.089-66.414-43.373m71.886 102.584c-6.606 5.199-15.312 7.258-22.272 5.267-3.25-.929-7.955-3.3-10.455-5.267l-4.545-3.578h41.818l-4.546 3.578" fill="#661004" fill-rule="evenodd"/></svg>