<svg width="45" height="45" fill="none" xmlns="http://www.w3.org/2000/svg"><path d="M42.604 20.104h-1.551a18.552 18.552 0 00-3.744-9.01l1.103-1.103a2.407 2.407 0 00-3.403-3.403l-1.103 1.103a18.579 18.579 0 00-8.997-3.744V2.396A2.402 2.402 0 0022.5 0a2.39 2.39 0 00-2.395 2.396v1.551a18.552 18.552 0 00-9.01 3.744L9.99 6.588a2.407 2.407 0 00-3.403 3.403l1.103 1.103a18.627 18.627 0 00-3.744 9.01h-1.55A2.4 2.4 0 000 22.5a2.4 2.4 0 002.396 2.396h1.551a18.552 18.552 0 003.744 9.01L6.588 35.01a2.407 2.407 0 003.403 3.403l1.102-1.103a18.681 18.681 0 009.011 3.744v1.551A2.4 2.4 0 0022.5 45c1.32 0 2.41-1.062 2.41-2.396v-1.551a18.55 18.55 0 009.01-3.744l1.103 1.103a2.407 2.407 0 003.402-3.403l-1.102-1.102a18.681 18.681 0 003.743-9.011h1.538A2.4 2.4 0 0045 22.5c.014-1.32-1.062-2.396-2.396-2.396zM22.5 36.234c-7.582 0-13.72-6.139-13.72-13.72 0-7.582 6.138-13.72 13.72-13.72 7.582 0 13.72 6.138 13.72 13.72.014 7.568-6.138 13.72-13.72 13.72z" fill="#fff"/><path d="M22.5 28.843a6.343 6.343 0 100-12.686 6.343 6.343 0 000 12.686z" fill="#fff"/></svg>