<svg width="68" height="53" fill="none" xmlns="http://www.w3.org/2000/svg"><path d="M10.895 15.391H.545v21.932h10.35l19.568 13.814s3.563 2.85 3.563-.107V1.254c0-2.311-3.167-.053-3.167-.053L10.895 15.39zm33.643-1.174c-.822-.775-2.191-.775-3.013 0a1.949 1.949 0 000 2.845c2.739 2.585 4.108 5.947 4.108 9.35 0 3.405-1.37 6.767-4.108 9.352a1.949 1.949 0 000 2.844c.41.388.959.604 1.506.604.548 0 1.096-.173 1.507-.604 3.56-3.361 5.34-7.8 5.34-12.195 0-4.439-1.78-8.834-5.34-12.196z" fill="#603"/><path d="M51.098 7.824a2.062 2.062 0 00-2.874 0 2.02 2.02 0 000 2.85C52.622 15.034 54.8 20.69 54.8 26.39a22.1 22.1 0 01-6.575 15.76 2.02 2.02 0 000 2.85 2.06 2.06 0 001.437.604c.523 0 1.045-.216 1.437-.605a26.174 26.174 0 007.75-18.61 26.004 26.004 0 00-7.75-18.566z" fill="#603"/><path d="M56.015 1.43c-.882-.775-2.351-.775-3.233 0-.881.773-.881 2.063 0 2.837 6.955 6.107 10.432 14.105 10.432 22.104 0 8.041-3.477 16.04-10.432 22.189-.881.774-.881 2.064 0 2.838a2.475 2.475 0 001.617.602c.587 0 1.175-.172 1.616-.602 7.836-6.923 11.803-15.954 11.803-25.027 0-9.03-3.967-18.061-11.803-24.942z" fill="#603"/></svg>