<svg width="13" height="20" fill="none" xmlns="http://www.w3.org/2000/svg"><path d="M11.524.705L4.12 5.924H.29v8.065h3.828l7.238 5.08s1.318 1.048 1.318-.04V.726c.02-.85-1.15-.02-1.15-.02zm-1.171 12.316a.426.426 0 01-.293.118.425.425 0 01-.293-.118L7.11 10.49l-2.677 2.53a.425.425 0 01-.293.118.425.425 0 01-.293-.118.38.38 0 01-.126-.277.38.38 0 01.126-.277l2.657-2.51-2.657-2.53a.38.38 0 01-.126-.278.38.38 0 01.126-.276c.167-.159.44-.159.586 0l2.656 2.51 2.657-2.51c.167-.159.44-.159.586 0 .167.158.167.415 0 .553l-2.636 2.51 2.657 2.511a.39.39 0 010 .574z" fill="#603"/></svg>