<svg width="330" height="21" viewBox="0 0 330 21" fill="none" xmlns="http://www.w3.org/2000/svg">
<path d="M31.4854 17.6284V4.83154H35.0977C36.2109 4.83154 37.1953 5.07764 38.0508 5.56982C38.9062 6.06201 39.5654 6.76221 40.0283 7.67041C40.4971 8.57861 40.7344 9.62158 40.7402 10.7993V11.6167C40.7402 12.8237 40.5059 13.8813 40.0371 14.7896C39.5742 15.6978 38.9092 16.395 38.042 16.8813C37.1807 17.3677 36.1758 17.6167 35.0273 17.6284H31.4854ZM33.1729 6.22021V16.2485H34.9482C36.249 16.2485 37.2598 15.8442 37.9805 15.0356C38.707 14.2271 39.0703 13.0757 39.0703 11.5815V10.8345C39.0703 9.38135 38.7275 8.25342 38.042 7.45068C37.3623 6.64209 36.3955 6.23193 35.1416 6.22021H33.1729ZM48.9141 17.6284C48.8203 17.4409 48.7441 17.1069 48.6855 16.6265C47.9297 17.4116 47.0273 17.8042 45.9785 17.8042C45.041 17.8042 44.2705 17.5405 43.667 17.0132C43.0693 16.48 42.7705 15.8062 42.7705 14.9917C42.7705 14.0015 43.1455 13.2339 43.8955 12.689C44.6514 12.1382 45.7119 11.8628 47.0771 11.8628H48.6592V11.1157C48.6592 10.5474 48.4893 10.0962 48.1494 9.76221C47.8096 9.42236 47.3086 9.25244 46.6465 9.25244C46.0664 9.25244 45.5801 9.39893 45.1875 9.69189C44.7949 9.98486 44.5986 10.3394 44.5986 10.7554H42.9639C42.9639 10.2808 43.1309 9.82373 43.4648 9.38428C43.8047 8.93896 44.2617 8.5874 44.8359 8.32959C45.416 8.07178 46.0518 7.94287 46.7432 7.94287C47.8389 7.94287 48.6973 8.21826 49.3184 8.76904C49.9395 9.31396 50.2617 10.0669 50.2852 11.0278V15.4048C50.2852 16.2778 50.3965 16.9722 50.6191 17.4878V17.6284H48.9141ZM46.2158 16.3892C46.7256 16.3892 47.209 16.2573 47.666 15.9937C48.123 15.73 48.4541 15.3872 48.6592 14.9653V13.0142H47.3848C45.3926 13.0142 44.3965 13.5972 44.3965 14.7632C44.3965 15.2729 44.5664 15.6714 44.9062 15.9585C45.2461 16.2456 45.6826 16.3892 46.2158 16.3892ZM55.04 5.81592V8.11865H56.8154V9.37549H55.04V15.2729C55.04 15.6538 55.1191 15.9409 55.2773 16.1343C55.4355 16.3218 55.7051 16.4155 56.0859 16.4155C56.2734 16.4155 56.5312 16.3804 56.8594 16.3101V17.6284C56.4316 17.7456 56.0156 17.8042 55.6113 17.8042C54.8848 17.8042 54.3369 17.5845 53.9678 17.145C53.5986 16.7056 53.4141 16.0815 53.4141 15.2729V9.37549H51.6826V8.11865H53.4141V5.81592H55.04ZM62.6689 17.8042C61.3799 17.8042 60.3311 17.3823 59.5225 16.5386C58.7139 15.689 58.3096 14.5552 58.3096 13.1372V12.8384C58.3096 11.895 58.4883 11.0542 58.8457 10.3159C59.209 9.57178 59.7129 8.9917 60.3574 8.57568C61.0078 8.15381 61.7109 7.94287 62.4668 7.94287C63.7031 7.94287 64.6641 8.3501 65.3496 9.16455C66.0352 9.979 66.3779 11.145 66.3779 12.6626V13.3394H59.9355C59.959 14.2769 60.2314 15.0356 60.7529 15.6157C61.2803 16.1899 61.9482 16.4771 62.7568 16.4771C63.3311 16.4771 63.8174 16.3599 64.2158 16.1255C64.6143 15.8911 64.9629 15.5806 65.2617 15.1938L66.2549 15.9673C65.458 17.1919 64.2627 17.8042 62.6689 17.8042ZM62.4668 9.27881C61.8105 9.27881 61.2598 9.51904 60.8145 9.99951C60.3691 10.4741 60.0938 11.1421 59.9883 12.0034H64.752V11.8804C64.7051 11.0542 64.4824 10.4155 64.084 9.96436C63.6855 9.50732 63.1465 9.27881 62.4668 9.27881Z" fill="#030303"/>
<path d="M13.585 3.5142H12.0982V2.7952C12.0982 2.66278 12.045 2.53579 11.9502 2.44215C11.8554 2.34851 11.7269 2.2959 11.5929 2.2959C11.4589 2.2959 11.3303 2.34851 11.2355 2.44215C11.1408 2.53579 11.0875 2.66278 11.0875 2.7952V3.51021H3.91146V2.7952C3.91146 2.66278 3.85822 2.53579 3.76344 2.44215C3.66867 2.34851 3.54013 2.2959 3.4061 2.2959C3.27207 2.2959 3.14354 2.34851 3.04877 2.44215C2.95399 2.53579 2.90075 2.66278 2.90075 2.7952V3.51021H1.415C1.04059 3.51021 0.681447 3.65683 0.416228 3.91793C0.151009 4.17904 0.00133717 4.53336 0 4.90328V6.15651H14.996V4.90328C14.9936 4.53475 14.844 4.18206 14.5797 3.92193C14.3155 3.66179 13.958 3.51525 13.585 3.5142Z" fill="#030303"/>
<path d="M0 15.9198C0.00133717 16.2897 0.151009 16.6441 0.416228 16.9052C0.681447 17.1663 1.04059 17.3129 1.415 17.3129H13.585C13.9594 17.3129 14.3186 17.1663 14.5838 16.9052C14.849 16.6441 14.9987 16.2897 15 15.9198V7.23193H0V15.9198ZM7.075 14.1773C7.11993 13.7072 7.26002 13.2509 7.48695 12.8354C7.71388 12.4199 8.02302 12.0538 8.396 11.7586C9.09541 11.0336 9.27835 10.8089 9.27835 10.2437C9.27835 9.81433 9.16616 9.47881 8.67192 9.47881C8.17769 9.47881 8.02709 9.8363 8.00384 10.4075H7.11138C7.08791 10.194 7.11245 9.97795 7.18324 9.77487C7.25404 9.57179 7.36934 9.38665 7.52092 9.23269C7.6725 9.07873 7.85662 8.95974 8.06013 8.88421C8.26364 8.80867 8.48151 8.77846 8.6982 8.79574C8.90216 8.76759 9.10993 8.78596 9.30559 8.8494C9.50126 8.91285 9.67963 9.01972 9.82704 9.1618C9.97446 9.30388 10.087 9.4774 10.156 9.66909C10.2251 9.86079 10.2488 10.0655 10.2254 10.2677C10.2254 10.9378 10.0232 11.2933 9.26016 12.0313C8.78529 12.4355 8.40375 12.9358 8.1413 13.4982H10.382L10.2567 14.2282H7.075V14.1773ZM4.67657 9.27109C5.047 9.21978 5.39635 9.06999 5.68728 8.8377H6.30281V14.2302H5.38104V9.83631C5.14897 9.88971 4.91179 9.9185 4.67354 9.92219L4.67657 9.27109Z" fill="#030303"/>
<path d="M321.49 1.29395C319.81 1.29587 318.167 1.79663 316.77 2.7329C315.374 3.66917 314.286 4.99893 313.644 6.5541C313.002 8.10927 312.835 9.82001 313.165 11.4701C313.494 13.1202 314.304 14.6356 315.493 15.8247C316.683 17.0138 318.197 17.8232 319.846 18.1507C321.495 18.4781 323.203 18.3089 324.756 17.6644C326.308 17.0199 327.635 15.929 328.569 14.5296C329.502 13.1303 330 11.4854 330 9.80268C329.999 8.68458 329.779 7.57753 329.351 6.54479C328.923 5.51205 328.296 4.57385 327.505 3.78372C326.715 2.9936 325.777 2.36707 324.745 1.93987C323.713 1.51267 322.607 1.29318 321.49 1.29395ZM321.807 13.0234L317.118 8.08516H326.496L321.807 13.0234Z" fill="#030303"/>
</svg>
