<svg width="259" height="54" viewBox="0 0 259 54" fill="none" xmlns="http://www.w3.org/2000/svg">
<g filter="url(#filter0_d)">
<path d="M4.5 44.6638V0.785156H254.5V44.6638H4.5Z" fill="white" stroke="#030303"/>
<path d="M50.4854 29.25V16.4531H54.0977C55.2109 16.4531 56.1953 16.6992 57.0508 17.1914C57.9062 17.6836 58.5654 18.3838 59.0283 19.292C59.4971 20.2002 59.7344 21.2432 59.7402 22.4209V23.2383C59.7402 24.4453 59.5059 25.5029 59.0371 26.4111C58.5742 27.3193 57.9092 28.0166 57.042 28.5029C56.1807 28.9893 55.1758 29.2383 54.0273 29.25H50.4854ZM52.1729 17.8418V27.8701H53.9482C55.249 27.8701 56.2598 27.4658 56.9805 26.6572C57.707 25.8486 58.0703 24.6973 58.0703 23.2031V22.4561C58.0703 21.0029 57.7275 19.875 57.042 19.0723C56.3623 18.2637 55.3955 17.8535 54.1416 17.8418H52.1729ZM67.9141 29.25C67.8203 29.0625 67.7441 28.7285 67.6855 28.248C66.9297 29.0332 66.0273 29.4258 64.9785 29.4258C64.041 29.4258 63.2705 29.1621 62.667 28.6348C62.0693 28.1016 61.7705 27.4277 61.7705 26.6133C61.7705 25.623 62.1455 24.8555 62.8955 24.3105C63.6514 23.7598 64.7119 23.4844 66.0771 23.4844H67.6592V22.7373C67.6592 22.1689 67.4893 21.7178 67.1494 21.3838C66.8096 21.0439 66.3086 20.874 65.6465 20.874C65.0664 20.874 64.5801 21.0205 64.1875 21.3135C63.7949 21.6064 63.5986 21.9609 63.5986 22.377H61.9639C61.9639 21.9023 62.1309 21.4453 62.4648 21.0059C62.8047 20.5605 63.2617 20.209 63.8359 19.9512C64.416 19.6934 65.0518 19.5645 65.7432 19.5645C66.8389 19.5645 67.6973 19.8398 68.3184 20.3906C68.9395 20.9355 69.2617 21.6885 69.2852 22.6494V27.0264C69.2852 27.8994 69.3965 28.5938 69.6191 29.1094V29.25H67.9141ZM65.2158 28.0107C65.7256 28.0107 66.209 27.8789 66.666 27.6152C67.123 27.3516 67.4541 27.0088 67.6592 26.5869V24.6357H66.3848C64.3926 24.6357 63.3965 25.2188 63.3965 26.3848C63.3965 26.8945 63.5664 27.293 63.9062 27.5801C64.2461 27.8672 64.6826 28.0107 65.2158 28.0107ZM74.04 17.4375V19.7402H75.8154V20.9971H74.04V26.8945C74.04 27.2754 74.1191 27.5625 74.2773 27.7559C74.4355 27.9434 74.7051 28.0371 75.0859 28.0371C75.2734 28.0371 75.5312 28.002 75.8594 27.9316V29.25C75.4316 29.3672 75.0156 29.4258 74.6113 29.4258C73.8848 29.4258 73.3369 29.2061 72.9678 28.7666C72.5986 28.3271 72.4141 27.7031 72.4141 26.8945V20.9971H70.6826V19.7402H72.4141V17.4375H74.04ZM81.6689 29.4258C80.3799 29.4258 79.3311 29.0039 78.5225 28.1602C77.7139 27.3105 77.3096 26.1768 77.3096 24.7588V24.46C77.3096 23.5166 77.4883 22.6758 77.8457 21.9375C78.209 21.1934 78.7129 20.6133 79.3574 20.1973C80.0078 19.7754 80.7109 19.5645 81.4668 19.5645C82.7031 19.5645 83.6641 19.9717 84.3496 20.7861C85.0352 21.6006 85.3779 22.7666 85.3779 24.2842V24.9609H78.9355C78.959 25.8984 79.2314 26.6572 79.7529 27.2373C80.2803 27.8115 80.9482 28.0986 81.7568 28.0986C82.3311 28.0986 82.8174 27.9814 83.2158 27.7471C83.6143 27.5127 83.9629 27.2021 84.2617 26.8154L85.2549 27.5889C84.458 28.8135 83.2627 29.4258 81.6689 29.4258ZM81.4668 20.9004C80.8105 20.9004 80.2598 21.1406 79.8145 21.6211C79.3691 22.0957 79.0938 22.7637 78.9883 23.625H83.752V23.502C83.7051 22.6758 83.4824 22.0371 83.084 21.5859C82.6855 21.1289 82.1465 20.9004 81.4668 20.9004Z" fill="#030303"/>
<path d="M32.585 16.4583H31.0982V15.742C31.0982 15.6101 31.045 15.4836 30.9502 15.3903C30.8555 15.297 30.7269 15.2446 30.5929 15.2446C30.4589 15.2446 30.3303 15.297 30.2355 15.3903C30.1408 15.4836 30.0875 15.6101 30.0875 15.742V16.4543H22.9115V15.742C22.9115 15.6101 22.8582 15.4836 22.7634 15.3903C22.6687 15.297 22.5401 15.2446 22.4061 15.2446C22.2721 15.2446 22.1435 15.297 22.0488 15.3903C21.954 15.4836 21.9007 15.6101 21.9007 15.742V16.4543H20.415C20.0406 16.4543 19.6814 16.6003 19.4162 16.8604C19.151 17.1206 19.0013 17.4735 19 17.842V19.0904H33.996V17.842C33.9936 17.4749 33.844 17.1236 33.5798 16.8644C33.3155 16.6053 32.958 16.4593 32.585 16.4583Z" fill="#030303"/>
<path d="M19 28.8167C19.0013 29.1852 19.151 29.5382 19.4162 29.7983C19.6814 30.0584 20.0406 30.2044 20.415 30.2044H32.585C32.9594 30.2044 33.3186 30.0584 33.5838 29.7983C33.849 29.5382 33.9987 29.1852 34 28.8167V20.1621H19V28.8167ZM26.075 27.0808C26.1199 26.6126 26.26 26.158 26.487 25.7441C26.7139 25.3302 27.023 24.9654 27.396 24.6714C28.0954 23.9492 28.2784 23.7254 28.2784 23.1624C28.2784 22.7346 28.1662 22.4004 27.6719 22.4004C27.1777 22.4004 27.0271 22.7565 27.0038 23.3255H26.1114C26.0879 23.1128 26.1124 22.8976 26.1832 22.6953C26.254 22.493 26.3693 22.3086 26.5209 22.1552C26.6725 22.0018 26.8566 21.8833 27.0601 21.808C27.2636 21.7328 27.4815 21.7027 27.6982 21.7199C27.9022 21.6919 28.1099 21.7102 28.3056 21.7734C28.5013 21.8366 28.6796 21.943 28.827 22.0846C28.9745 22.2261 29.087 22.399 29.156 22.5899C29.2251 22.7809 29.2488 22.9848 29.2254 23.1862C29.2254 23.8537 29.0232 24.2079 28.2602 24.943C27.7853 25.3458 27.4037 25.8441 27.1413 26.4044H29.382L29.2567 27.1315H26.075V27.0808ZM23.6766 22.1934C24.047 22.1423 24.3964 21.9931 24.6873 21.7617H25.3028V27.1335H24.381V22.7565C24.149 22.8097 23.9118 22.8384 23.6735 22.842L23.6766 22.1934Z" fill="#030303"/>
<path d="M231.49 14.2476C229.81 14.2495 228.167 14.7483 226.77 15.681C225.374 16.6137 224.286 17.9383 223.644 19.4875C223.002 21.0367 222.835 22.7409 223.165 24.3847C223.494 26.0285 224.304 27.5381 225.493 28.7226C226.683 29.9071 228.197 30.7135 229.846 31.0396C231.495 31.3658 233.203 31.1973 234.756 30.5552C236.308 29.9132 237.635 28.8265 238.569 27.4325C239.502 26.0385 240 24.3999 240 22.7237C239.999 21.6099 239.779 20.507 239.351 19.4783C238.923 18.4495 238.296 17.5149 237.505 16.7278C236.715 15.9407 235.777 15.3166 234.745 14.891C233.713 14.4654 232.607 14.2468 231.49 14.2476ZM231.807 25.9321L227.118 21.0127H236.496L231.807 25.9321Z" fill="#030303"/>
</g>
<defs>
<filter id="filter0_d" x="0" y="0.285156" width="259" height="52.8786" filterUnits="userSpaceOnUse" color-interpolation-filters="sRGB">
<feFlood flood-opacity="0" result="BackgroundImageFix"/>
<feColorMatrix in="SourceAlpha" type="matrix" values="0 0 0 0 0 0 0 0 0 0 0 0 0 0 0 0 0 0 127 0" result="hardAlpha"/>
<feOffset dy="4"/>
<feGaussianBlur stdDeviation="2"/>
<feComposite in2="hardAlpha" operator="out"/>
<feColorMatrix type="matrix" values="0 0 0 0 0 0 0 0 0 0 0 0 0 0 0 0 0 0 0.25 0"/>
<feBlend mode="normal" in2="BackgroundImageFix" result="effect1_dropShadow"/>
<feBlend mode="normal" in="SourceGraphic" in2="effect1_dropShadow" result="shape"/>
</filter>
</defs>
</svg>
