<svg width="360" height="46" viewBox="0 0 360 46" fill="none" xmlns="http://www.w3.org/2000/svg">
<path d="M0.5 45.0526V1.00122H359.5V45.0526H0.5Z" fill="white" stroke="#030303"/>
<path d="M53.7188 24.5713H48.1729V29.1064H54.6152V30.4863H46.4854V17.6895H54.5273V19.0781H48.1729V23.1914H53.7188V24.5713ZM59.8447 25.7139H55.5557V24.3867H59.8447V25.7139ZM62.9648 20.9766L63.0088 22.0312C63.7061 21.2109 64.6465 20.8008 65.8301 20.8008C67.1602 20.8008 68.0654 21.3105 68.5459 22.3301C68.8623 21.873 69.2725 21.5039 69.7764 21.2227C70.2861 20.9414 70.8867 20.8008 71.5781 20.8008C73.6641 20.8008 74.7246 21.9053 74.7598 24.1143V30.4863H73.1338V24.2109C73.1338 23.5312 72.9785 23.0244 72.668 22.6904C72.3574 22.3506 71.8359 22.1807 71.1035 22.1807C70.5 22.1807 69.999 22.3623 69.6006 22.7256C69.2021 23.083 68.9707 23.5664 68.9062 24.1758V30.4863H67.2715V24.2549C67.2715 22.8721 66.5947 22.1807 65.2412 22.1807C64.1748 22.1807 63.4453 22.6348 63.0527 23.543V30.4863H61.4268V20.9766H62.9648ZM83.0918 30.4863C82.998 30.2988 82.9219 29.9648 82.8633 29.4844C82.1074 30.2695 81.2051 30.6621 80.1562 30.6621C79.2188 30.6621 78.4482 30.3984 77.8447 29.8711C77.2471 29.3379 76.9482 28.6641 76.9482 27.8496C76.9482 26.8594 77.3232 26.0918 78.0732 25.5469C78.8291 24.9961 79.8896 24.7207 81.2549 24.7207H82.8369V23.9736C82.8369 23.4053 82.667 22.9541 82.3271 22.6201C81.9873 22.2803 81.4863 22.1104 80.8242 22.1104C80.2441 22.1104 79.7578 22.2568 79.3652 22.5498C78.9727 22.8428 78.7764 23.1973 78.7764 23.6133H77.1416C77.1416 23.1387 77.3086 22.6816 77.6426 22.2422C77.9824 21.7969 78.4395 21.4453 79.0137 21.1875C79.5938 20.9297 80.2295 20.8008 80.9209 20.8008C82.0166 20.8008 82.875 21.0762 83.4961 21.627C84.1172 22.1719 84.4395 22.9248 84.4629 23.8857V28.2627C84.4629 29.1357 84.5742 29.8301 84.7969 30.3457V30.4863H83.0918ZM80.3936 29.2471C80.9033 29.2471 81.3867 29.1152 81.8438 28.8516C82.3008 28.5879 82.6318 28.2451 82.8369 27.8232V25.8721H81.5625C79.5703 25.8721 78.5742 26.4551 78.5742 27.6211C78.5742 28.1309 78.7441 28.5293 79.084 28.8164C79.4238 29.1035 79.8604 29.2471 80.3936 29.2471ZM88.7783 30.4863H87.1523V20.9766H88.7783V30.4863ZM87.0205 18.4541C87.0205 18.1904 87.0996 17.9678 87.2578 17.7861C87.4219 17.6045 87.6621 17.5137 87.9785 17.5137C88.2949 17.5137 88.5352 17.6045 88.6992 17.7861C88.8633 17.9678 88.9453 18.1904 88.9453 18.4541C88.9453 18.7178 88.8633 18.9375 88.6992 19.1133C88.5352 19.2891 88.2949 19.377 87.9785 19.377C87.6621 19.377 87.4219 19.2891 87.2578 19.1133C87.0996 18.9375 87.0205 18.7178 87.0205 18.4541ZM93.1553 30.4863H91.5293V16.9863H93.1553V30.4863Z" fill="#030303"/>
<path d="M29.443 17.5205H15.5549C15.482 17.5204 15.4097 17.5366 15.3424 17.5685C15.275 17.6003 15.2138 17.6471 15.1622 17.7061C15.1107 17.7651 15.0698 17.8352 15.042 17.9123C15.0141 17.9894 14.9999 18.072 15 18.1554V27.8981C14.9999 27.9816 15.0141 28.0642 15.042 28.1413C15.0698 28.2184 15.1107 28.2884 15.1622 28.3474C15.2138 28.4064 15.275 28.4532 15.3424 28.485C15.4097 28.5169 15.482 28.5332 15.5549 28.5331H29.443C29.516 28.5332 29.5884 28.5169 29.6559 28.4851C29.7234 28.4533 29.7847 28.4065 29.8364 28.3476C29.8882 28.2886 29.9292 28.2186 29.9573 28.1415C29.9853 28.0644 29.9999 27.9817 30 27.8981V18.1554C29.9999 18.0719 29.9853 17.9892 29.9573 17.9121C29.9292 17.835 29.8882 17.7649 29.8364 17.706C29.7847 17.647 29.7234 17.6003 29.6559 17.5685C29.5884 17.5366 29.516 17.5204 29.443 17.5205ZM28.6688 20.4093L22.8391 24.2667H22.3793L16.5517 20.4106C16.4863 20.3671 16.4291 20.3092 16.3832 20.2404C16.3374 20.1716 16.3038 20.0931 16.2844 20.0095C16.2651 19.9258 16.2603 19.8386 16.2704 19.7528C16.2805 19.667 16.3052 19.5844 16.3433 19.5096C16.3813 19.4347 16.4318 19.3692 16.4919 19.3168C16.5521 19.2643 16.6207 19.2259 16.6938 19.2037C16.7669 19.1816 16.8431 19.1761 16.918 19.1876C16.993 19.1992 17.0652 19.2275 17.1306 19.271L22.6082 22.8965L28.0857 19.271C28.1511 19.2275 28.2233 19.1992 28.2983 19.1876C28.3732 19.1761 28.4494 19.1816 28.5225 19.2037C28.5956 19.2259 28.6642 19.2643 28.7244 19.3168C28.7845 19.3692 28.835 19.4347 28.873 19.5096C28.9111 19.5844 28.9358 19.667 28.9459 19.7528C28.956 19.8386 28.9512 19.9258 28.9319 20.0095C28.9125 20.0931 28.8789 20.1716 28.8331 20.2404C28.7872 20.3092 28.73 20.3671 28.6646 20.4106L28.6688 20.4093Z" fill="#030303"/>
</svg>
