<svg width="360" height="46" viewBox="0 0 360 46" fill="none" xmlns="http://www.w3.org/2000/svg">
<path d="M0.5 44.9784V0.927002H359.5V44.9784H0.5Z" fill="white" stroke="#030303"/>
<path d="M54.3203 30.48H52.624L46.1816 20.6187V30.48H44.4854V17.6831H46.1816L52.6416 27.5884V17.6831H54.3203V30.48ZM62.9336 30.48C62.8398 30.2925 62.7637 29.9585 62.7051 29.478C61.9492 30.2632 61.0469 30.6558 59.998 30.6558C59.0605 30.6558 58.29 30.3921 57.6865 29.8647C57.0889 29.3315 56.79 28.6577 56.79 27.8433C56.79 26.853 57.165 26.0854 57.915 25.5405C58.6709 24.9897 59.7314 24.7144 61.0967 24.7144H62.6787V23.9673C62.6787 23.3989 62.5088 22.9478 62.1689 22.6138C61.8291 22.2739 61.3281 22.104 60.666 22.104C60.0859 22.104 59.5996 22.2505 59.207 22.5435C58.8145 22.8364 58.6182 23.1909 58.6182 23.6069H56.9834C56.9834 23.1323 57.1504 22.6753 57.4844 22.2358C57.8242 21.7905 58.2812 21.439 58.8555 21.1812C59.4355 20.9233 60.0713 20.7944 60.7627 20.7944C61.8584 20.7944 62.7168 21.0698 63.3379 21.6206C63.959 22.1655 64.2812 22.9185 64.3047 23.8794V28.2563C64.3047 29.1294 64.416 29.8237 64.6387 30.3394V30.48H62.9336ZM60.2354 29.2407C60.7451 29.2407 61.2285 29.1089 61.6855 28.8452C62.1426 28.5815 62.4736 28.2388 62.6787 27.8169V25.8657H61.4043C59.4121 25.8657 58.416 26.4487 58.416 27.6147C58.416 28.1245 58.5859 28.5229 58.9258 28.8101C59.2656 29.0972 59.7021 29.2407 60.2354 29.2407ZM68.3828 20.9702L68.4268 22.0249C69.124 21.2046 70.0645 20.7944 71.248 20.7944C72.5781 20.7944 73.4834 21.3042 73.9639 22.3237C74.2803 21.8667 74.6904 21.4976 75.1943 21.2163C75.7041 20.9351 76.3047 20.7944 76.9961 20.7944C79.082 20.7944 80.1426 21.8989 80.1777 24.1079V30.48H78.5518V24.2046C78.5518 23.5249 78.3965 23.0181 78.0859 22.6841C77.7754 22.3442 77.2539 22.1743 76.5215 22.1743C75.918 22.1743 75.417 22.356 75.0186 22.7192C74.6201 23.0767 74.3887 23.5601 74.3242 24.1694V30.48H72.6895V24.2485C72.6895 22.8657 72.0127 22.1743 70.6592 22.1743C69.5928 22.1743 68.8633 22.6284 68.4707 23.5366V30.48H66.8447V20.9702H68.3828ZM86.585 30.6558C85.2959 30.6558 84.2471 30.2339 83.4385 29.3901C82.6299 28.5405 82.2256 27.4067 82.2256 25.9888V25.6899C82.2256 24.7466 82.4043 23.9058 82.7617 23.1675C83.125 22.4233 83.6289 21.8433 84.2734 21.4272C84.9238 21.0054 85.627 20.7944 86.3828 20.7944C87.6191 20.7944 88.5801 21.2017 89.2656 22.0161C89.9512 22.8306 90.2939 23.9966 90.2939 25.5142V26.1909H83.8516C83.875 27.1284 84.1475 27.8872 84.6689 28.4673C85.1963 29.0415 85.8643 29.3286 86.6729 29.3286C87.2471 29.3286 87.7334 29.2114 88.1318 28.9771C88.5303 28.7427 88.8789 28.4321 89.1777 28.0454L90.1709 28.8188C89.374 30.0435 88.1787 30.6558 86.585 30.6558ZM86.3828 22.1304C85.7266 22.1304 85.1758 22.3706 84.7305 22.8511C84.2852 23.3257 84.0098 23.9937 83.9043 24.855H88.668V24.7319C88.6211 23.9058 88.3984 23.2671 88 22.8159C87.6016 22.3589 87.0625 22.1304 86.3828 22.1304Z" fill="#030303"/>
<path d="M22.9019 24.9124C22.9019 24.886 22.9186 24.8646 22.9186 24.8402V23.1629C22.9117 23.1162 22.9016 23.0699 22.8884 23.0244C23.5417 22.6448 24.08 22.1146 24.4517 21.4846C24.8235 20.8545 25.0163 20.1457 25.0116 19.426C25.0116 17.2267 23.4387 15.4441 21.5 15.4441C19.5613 15.4441 17.9884 17.2257 17.9884 19.426C18.0051 20.1483 18.2152 20.8552 18.5994 21.4819C18.9837 22.1085 19.5298 22.6348 20.1877 23.0127C20.1721 23.0618 20.1606 23.1121 20.1533 23.1629V24.8382C20.156 24.8517 20.1595 24.8651 20.1637 24.8782C17.1931 25.2217 15 26.7321 15 28.2259C15 29.9246 17.9092 30.4612 21.5 30.4612C25.0908 30.4612 28 29.9246 28 28.2259C27.999 26.7701 25.7955 25.3017 22.9019 24.9124Z" fill="#030303"/>
</svg>
