<svg width="360" height="46" viewBox="0 0 360 46" fill="none" xmlns="http://www.w3.org/2000/svg">
<path d="M0.5 45.1268V1.07544H359.5V45.1268H0.5Z" fill="white" stroke="#030303"/>
<path d="M47.1729 25.5508V30.5605H45.4854V17.7637H50.2051C51.6055 17.7637 52.7012 18.1211 53.4922 18.8359C54.2891 19.5508 54.6875 20.4971 54.6875 21.6748C54.6875 22.917 54.2979 23.875 53.5186 24.5488C52.7451 25.2168 51.6348 25.5508 50.1875 25.5508H47.1729ZM47.1729 24.1709H50.2051C51.1074 24.1709 51.7988 23.96 52.2793 23.5381C52.7598 23.1104 53 22.4951 53 21.6924C53 20.9307 52.7598 20.3213 52.2793 19.8643C51.7988 19.4072 51.1396 19.1699 50.3018 19.1523H47.1729V24.1709ZM58.2119 22.2021C58.9326 21.3174 59.8701 20.875 61.0244 20.875C63.0342 20.875 64.0479 22.0088 64.0654 24.2764V30.5605H62.4395V24.2676C62.4336 23.582 62.2754 23.0752 61.9648 22.7471C61.6602 22.4189 61.1826 22.2549 60.5322 22.2549C60.0049 22.2549 59.542 22.3955 59.1436 22.6768C58.7451 22.958 58.4346 23.3271 58.2119 23.7842V30.5605H56.5859V17.0605H58.2119V22.2021ZM66.0693 25.7178C66.0693 24.7861 66.251 23.9482 66.6143 23.2041C66.9834 22.46 67.4932 21.8857 68.1436 21.4814C68.7998 21.0771 69.5469 20.875 70.3848 20.875C71.6797 20.875 72.7256 21.3232 73.5225 22.2197C74.3252 23.1162 74.7266 24.3086 74.7266 25.7969V25.9111C74.7266 26.8369 74.5479 27.6689 74.1904 28.4072C73.8389 29.1396 73.332 29.7109 72.6699 30.1211C72.0137 30.5312 71.2578 30.7363 70.4023 30.7363C69.1133 30.7363 68.0674 30.2881 67.2646 29.3916C66.4678 28.4951 66.0693 27.3086 66.0693 25.832V25.7178ZM67.7041 25.9111C67.7041 26.9658 67.9473 27.8125 68.4336 28.4512C68.9258 29.0898 69.582 29.4092 70.4023 29.4092C71.2285 29.4092 71.8848 29.0869 72.3711 28.4424C72.8574 27.792 73.1006 26.8838 73.1006 25.7178C73.1006 24.6748 72.8516 23.8311 72.3535 23.1865C71.8613 22.5361 71.2051 22.2109 70.3848 22.2109C69.582 22.2109 68.9346 22.5303 68.4424 23.1689C67.9502 23.8076 67.7041 24.7217 67.7041 25.9111ZM78.3037 21.0508L78.3564 22.2461C79.083 21.332 80.0322 20.875 81.2041 20.875C83.2139 20.875 84.2275 22.0088 84.2451 24.2764V30.5605H82.6191V24.2676C82.6133 23.582 82.4551 23.0752 82.1445 22.7471C81.8398 22.4189 81.3623 22.2549 80.7119 22.2549C80.1846 22.2549 79.7217 22.3955 79.3232 22.6768C78.9248 22.958 78.6143 23.3271 78.3916 23.7842V30.5605H76.7656V21.0508H78.3037ZM90.6436 30.7363C89.3545 30.7363 88.3057 30.3145 87.4971 29.4707C86.6885 28.6211 86.2842 27.4873 86.2842 26.0693V25.7705C86.2842 24.8271 86.4629 23.9863 86.8203 23.248C87.1836 22.5039 87.6875 21.9238 88.332 21.5078C88.9824 21.0859 89.6855 20.875 90.4414 20.875C91.6777 20.875 92.6387 21.2822 93.3242 22.0967C94.0098 22.9111 94.3525 24.0771 94.3525 25.5947V26.2715H87.9102C87.9336 27.209 88.2061 27.9678 88.7275 28.5479C89.2549 29.1221 89.9229 29.4092 90.7314 29.4092C91.3057 29.4092 91.792 29.292 92.1904 29.0576C92.5889 28.8232 92.9375 28.5127 93.2363 28.126L94.2295 28.8994C93.4326 30.124 92.2373 30.7363 90.6436 30.7363ZM90.4414 22.2109C89.7852 22.2109 89.2344 22.4512 88.7891 22.9316C88.3438 23.4062 88.0684 24.0742 87.9629 24.9355H92.7266V24.8125C92.6797 23.9863 92.457 23.3477 92.0586 22.8965C91.6602 22.4395 91.1211 22.2109 90.4414 22.2109Z" fill="#030303"/>
<path d="M27.3738 11.5879H16.6282C16.1967 11.589 15.7832 11.7556 15.4781 12.0515C15.173 12.3474 15.0011 12.7484 15 13.1668V33.0352C15.0011 33.4536 15.173 33.8546 15.4781 34.1505C15.7832 34.4464 16.1967 34.6131 16.6282 34.6141H27.3738C27.8051 34.6131 28.2184 34.4463 28.5232 34.1504C28.828 33.8544 28.9995 33.4534 29 33.0352V13.1668C28.9995 12.7486 28.828 12.3476 28.5232 12.0516C28.2184 11.7557 27.8051 11.589 27.3738 11.5879ZM18.945 32.7966H17.19C17.0347 32.7966 16.8857 32.7367 16.7759 32.6302C16.6661 32.5237 16.6044 32.3793 16.6044 32.2286C16.6044 32.078 16.6661 31.9336 16.7759 31.827C16.8857 31.7205 17.0347 31.6607 17.19 31.6607H18.945C19.1003 31.6607 19.2493 31.7205 19.3591 31.827C19.4689 31.9336 19.5306 32.078 19.5306 32.2286C19.5306 32.3793 19.4689 32.5237 19.3591 32.6302C19.2493 32.7367 19.1003 32.7966 18.945 32.7966ZM18.945 30.6326H17.19C17.035 30.6326 16.8863 30.5729 16.7766 30.4666C16.667 30.3602 16.6054 30.216 16.6054 30.0657C16.6054 29.9153 16.667 29.7711 16.7766 29.6648C16.8863 29.5585 17.035 29.4988 17.19 29.4988H18.945C19.1 29.4988 19.2487 29.5585 19.3584 29.6648C19.468 29.7711 19.5296 29.9153 19.5296 30.0657C19.5296 30.216 19.468 30.3602 19.3584 30.4666C19.2487 30.5729 19.1 30.6326 18.945 30.6326ZM18.945 28.4706H17.19C17.0347 28.4706 16.8857 28.4108 16.7759 28.3043C16.6661 28.1978 16.6044 28.0533 16.6044 27.9027C16.6044 27.7521 16.6661 27.6076 16.7759 27.5011C16.8857 27.3946 17.0347 27.3348 17.19 27.3348H18.945C19.1003 27.3348 19.2493 27.3946 19.3591 27.5011C19.4689 27.6076 19.5306 27.7521 19.5306 27.9027C19.5306 28.0533 19.4689 28.1978 19.3591 28.3043C19.2493 28.4108 19.1003 28.4706 18.945 28.4706ZM18.945 26.3067H17.19C17.0347 26.3067 16.8857 26.2469 16.7759 26.1404C16.6661 26.0338 16.6044 25.8894 16.6044 25.7388C16.6044 25.5881 16.6661 25.4437 16.7759 25.3372C16.8857 25.2306 17.0347 25.1708 17.19 25.1708H18.945C19.1003 25.1708 19.2493 25.2306 19.3591 25.3372C19.4689 25.4437 19.5306 25.5881 19.5306 25.7388C19.5306 25.8894 19.4689 26.0338 19.3591 26.1404C19.2493 26.2469 19.1003 26.3067 18.945 26.3067ZM22.8775 32.7976H21.1246C20.9693 32.7976 20.8203 32.7377 20.7105 32.6312C20.6006 32.5247 20.5389 32.3803 20.5389 32.2296C20.5389 32.079 20.6006 31.9346 20.7105 31.8281C20.8203 31.7216 20.9693 31.6617 21.1246 31.6617H22.8775C23.0328 31.6617 23.1818 31.7216 23.2916 31.8281C23.4014 31.9346 23.4631 32.079 23.4631 32.2296C23.4631 32.3803 23.4014 32.5247 23.2916 32.6312C23.1818 32.7377 23.0328 32.7976 22.8775 32.7976ZM22.8775 30.6336H21.1246C21.0478 30.6336 20.9718 30.6189 20.9009 30.5904C20.83 30.5619 20.7655 30.5202 20.7112 30.4676C20.6569 30.4149 20.6139 30.3524 20.5845 30.2836C20.5551 30.2148 20.54 30.1411 20.54 30.0667C20.54 29.9922 20.5551 29.9185 20.5845 29.8497C20.6139 29.7809 20.6569 29.7184 20.7112 29.6658C20.7655 29.6132 20.83 29.5714 20.9009 29.5429C20.9718 29.5144 21.0478 29.4998 21.1246 29.4998H22.8775C22.9542 29.4998 23.0303 29.5144 23.1012 29.5429C23.1721 29.5714 23.2366 29.6132 23.2909 29.6658C23.3452 29.7184 23.3882 29.7809 23.4176 29.8497C23.447 29.9185 23.4621 29.9922 23.4621 30.0667C23.4621 30.1411 23.447 30.2148 23.4176 30.2836C23.3882 30.3524 23.3452 30.4149 23.2909 30.4676C23.2366 30.5202 23.1721 30.5619 23.1012 30.5904C23.0303 30.6189 22.9542 30.6336 22.8775 30.6336ZM22.8775 28.4717H21.1246C20.9693 28.4717 20.8203 28.4118 20.7105 28.3053C20.6006 28.1988 20.5389 28.0544 20.5389 27.9037C20.5389 27.7531 20.6006 27.6087 20.7105 27.5022C20.8203 27.3956 20.9693 27.3358 21.1246 27.3358H22.8775C23.0328 27.3358 23.1818 27.3956 23.2916 27.5022C23.4014 27.6087 23.4631 27.7531 23.4631 27.9037C23.4631 28.0544 23.4014 28.1988 23.2916 28.3053C23.1818 28.4118 23.0328 28.4717 22.8775 28.4717ZM22.8775 26.3077H21.1246C21.0477 26.3077 20.9715 26.293 20.9005 26.2645C20.8294 26.2359 20.7649 26.1941 20.7105 26.1413C20.6561 26.0886 20.613 26.026 20.5835 25.9571C20.5541 25.8882 20.5389 25.8143 20.5389 25.7398C20.5389 25.6652 20.5541 25.5913 20.5835 25.5224C20.613 25.4535 20.6561 25.3909 20.7105 25.3382C20.7649 25.2854 20.8294 25.2436 20.9005 25.2151C20.9715 25.1865 21.0477 25.1718 21.1246 25.1718H22.8775C22.9544 25.1718 23.0305 25.1865 23.1016 25.2151C23.1726 25.2436 23.2372 25.2854 23.2916 25.3382C23.346 25.3909 23.3891 25.4535 23.4186 25.5224C23.448 25.5913 23.4631 25.6652 23.4631 25.7398C23.4631 25.8143 23.448 25.8882 23.4186 25.9571C23.3891 26.026 23.346 26.0886 23.2916 26.1413C23.2372 26.1941 23.1726 26.2359 23.1016 26.2645C23.0305 26.293 22.9544 26.3077 22.8775 26.3077ZM26.81 32.7986H25.055C24.8997 32.7986 24.7507 32.7387 24.6409 32.6322C24.5311 32.5257 24.4694 32.3813 24.4694 32.2307C24.4694 32.08 24.5311 31.9356 24.6409 31.8291C24.7507 31.7226 24.8997 31.6627 25.055 31.6627H26.81C26.9653 31.6627 27.1143 31.7226 27.2241 31.8291C27.3339 31.9356 27.3956 32.08 27.3956 32.2307C27.3956 32.3813 27.3339 32.5257 27.2241 32.6322C27.1143 32.7387 26.9653 32.7986 26.81 32.7986ZM26.81 30.6346H25.055C24.9 30.6346 24.7513 30.5749 24.6416 30.4686C24.532 30.3622 24.4704 30.218 24.4704 30.0677C24.4704 29.9173 24.532 29.7731 24.6416 29.6668C24.7513 29.5605 24.9 29.5008 25.055 29.5008H26.81C26.965 29.5008 27.1137 29.5605 27.2234 29.6668C27.333 29.7731 27.3946 29.9173 27.3946 30.0677C27.3946 30.218 27.333 30.3622 27.2234 30.4686C27.1137 30.5749 26.965 30.6346 26.81 30.6346ZM26.81 28.4727H25.055C24.9781 28.4727 24.902 28.458 24.8309 28.4294C24.7599 28.4009 24.6953 28.3591 24.6409 28.3063C24.5865 28.2536 24.5434 28.191 24.5139 28.1221C24.4845 28.0532 24.4694 27.9793 24.4694 27.9047C24.4694 27.8301 24.4845 27.7563 24.5139 27.6874C24.5434 27.6185 24.5865 27.5559 24.6409 27.5031C24.6953 27.4504 24.7599 27.4086 24.8309 27.38C24.902 27.3515 24.9781 27.3368 25.055 27.3368H26.81C26.8869 27.3368 26.963 27.3515 27.0341 27.38C27.1052 27.4086 27.1697 27.4504 27.2241 27.5031C27.2785 27.5559 27.3216 27.6185 27.3511 27.6874C27.3805 27.7563 27.3956 27.8301 27.3956 27.9047C27.3956 27.9793 27.3805 28.0532 27.3511 28.1221C27.3216 28.191 27.2785 28.2536 27.2241 28.3063C27.1697 28.3591 27.1052 28.4009 27.0341 28.4294C26.963 28.458 26.8869 28.4727 26.81 28.4727ZM26.81 26.3087H25.055C24.8997 26.3087 24.7507 26.2489 24.6409 26.1423C24.5311 26.0358 24.4694 25.8914 24.4694 25.7408C24.4694 25.5901 24.5311 25.4457 24.6409 25.3392C24.7507 25.2327 24.8997 25.1728 25.055 25.1728H26.81C26.9653 25.1728 27.1143 25.2327 27.2241 25.3392C27.3339 25.4457 27.3956 25.5901 27.3956 25.7408C27.3956 25.8914 27.3339 26.0358 27.2241 26.1423C27.1143 26.2489 26.9653 26.3087 26.81 26.3087ZM27.433 23.8638H16.5691V13.4417H27.4299L27.433 23.8638Z" fill="#030303"/>
</svg>
