<svg width="360" height="46" viewBox="0 0 360 46" fill="none" xmlns="http://www.w3.org/2000/svg">
<path d="M0.5 45.2008V1.14941H359.5V45.2008H0.5Z" fill="white" stroke="#030303"/>
<path d="M336.49 14.6655C334.81 14.6675 333.167 15.1682 331.77 16.1045C330.374 17.0408 329.286 18.3705 328.644 19.9257C328.002 21.4808 327.835 23.1916 328.165 24.8417C328.494 26.4918 329.304 28.0072 330.493 29.1963C331.683 30.3854 333.197 31.1948 334.846 31.5223C336.495 31.8497 338.203 31.6805 339.756 31.0359C341.308 30.3914 342.635 29.3006 343.569 27.9012C344.502 26.5019 345 24.857 345 23.1743C344.999 22.0562 344.779 20.9491 344.351 19.9164C343.923 18.8836 343.296 17.9454 342.505 17.1553C341.715 16.3652 340.777 15.7387 339.745 15.3115C338.713 14.8843 337.607 14.6648 336.49 14.6655ZM336.807 26.395L332.12 21.4567H341.493L336.807 26.395Z" fill="#030303"/>
<path d="M55.3271 19.2266H51.2139V30.6348H49.5352V19.2266H45.4307V17.8379H55.3271V19.2266ZM58.7373 30.6348H57.1113V21.125H58.7373V30.6348ZM56.9795 18.6025C56.9795 18.3389 57.0586 18.1162 57.2168 17.9346C57.3809 17.7529 57.6211 17.6621 57.9375 17.6621C58.2539 17.6621 58.4941 17.7529 58.6582 17.9346C58.8223 18.1162 58.9043 18.3389 58.9043 18.6025C58.9043 18.8662 58.8223 19.0859 58.6582 19.2617C58.4941 19.4375 58.2539 19.5254 57.9375 19.5254C57.6211 19.5254 57.3809 19.4375 57.2168 19.2617C57.0586 19.0859 56.9795 18.8662 56.9795 18.6025ZM65.1621 29.4834C65.7422 29.4834 66.249 29.3076 66.6826 28.9561C67.1162 28.6045 67.3564 28.165 67.4033 27.6377H68.9414C68.9121 28.1826 68.7246 28.7012 68.3789 29.1934C68.0332 29.6855 67.5703 30.0781 66.9902 30.3711C66.416 30.6641 65.8066 30.8105 65.1621 30.8105C63.8672 30.8105 62.8359 30.3799 62.0684 29.5186C61.3066 28.6514 60.9258 27.4678 60.9258 25.9678V25.6953C60.9258 24.7695 61.0957 23.9463 61.4355 23.2256C61.7754 22.5049 62.2617 21.9453 62.8945 21.5469C63.5332 21.1484 64.2861 20.9492 65.1533 20.9492C66.2197 20.9492 67.1045 21.2686 67.8076 21.9072C68.5166 22.5459 68.8945 23.375 68.9414 24.3945H67.4033C67.3564 23.7793 67.1221 23.2754 66.7002 22.8828C66.2842 22.4844 65.7686 22.2852 65.1533 22.2852C64.3271 22.2852 63.6855 22.584 63.2285 23.1816C62.7773 23.7734 62.5518 24.6318 62.5518 25.7568V26.0645C62.5518 27.1602 62.7773 28.0039 63.2285 28.5957C63.6797 29.1875 64.3242 29.4834 65.1621 29.4834ZM73.4238 26.2314L72.4043 27.2949V30.6348H70.7783V17.1348H72.4043V25.2998L73.2744 24.2539L76.2363 21.125H78.2139L74.5137 25.0977L78.6445 30.6348H76.7373L73.4238 26.2314ZM83.6631 30.8105C82.374 30.8105 81.3252 30.3887 80.5166 29.5449C79.708 28.6953 79.3037 27.5615 79.3037 26.1436V25.8447C79.3037 24.9014 79.4824 24.0605 79.8398 23.3223C80.2031 22.5781 80.707 21.998 81.3516 21.582C82.002 21.1602 82.7051 20.9492 83.4609 20.9492C84.6973 20.9492 85.6582 21.3564 86.3438 22.1709C87.0293 22.9854 87.3721 24.1514 87.3721 25.6689V26.3457H80.9297C80.9531 27.2832 81.2256 28.042 81.7471 28.6221C82.2744 29.1963 82.9424 29.4834 83.751 29.4834C84.3252 29.4834 84.8115 29.3662 85.21 29.1318C85.6084 28.8975 85.957 28.5869 86.2559 28.2002L87.249 28.9736C86.4521 30.1982 85.2568 30.8105 83.6631 30.8105ZM83.4609 22.2852C82.8047 22.2852 82.2539 22.5254 81.8086 23.0059C81.3633 23.4805 81.0879 24.1484 80.9824 25.0098H85.7461V24.8867C85.6992 24.0605 85.4766 23.4219 85.0781 22.9707C84.6797 22.5137 84.1406 22.2852 83.4609 22.2852ZM91.4678 18.8223V21.125H93.2432V22.3818H91.4678V28.2793C91.4678 28.6602 91.5469 28.9473 91.7051 29.1406C91.8633 29.3281 92.1328 29.4219 92.5137 29.4219C92.7012 29.4219 92.959 29.3867 93.2871 29.3164V30.6348C92.8594 30.752 92.4434 30.8105 92.0391 30.8105C91.3125 30.8105 90.7646 30.5908 90.3955 30.1514C90.0264 29.7119 89.8418 29.0879 89.8418 28.2793V22.3818H88.1104V21.125H89.8418V18.8223H91.4678ZM108.36 19.2266H104.247V30.6348H102.568V19.2266H98.4639V17.8379H108.36V19.2266ZM112.482 28.2529L114.697 21.125H116.438L112.614 32.1025C112.022 33.6846 111.082 34.4756 109.793 34.4756L109.485 34.4492L108.879 34.335V33.0166L109.318 33.0518C109.869 33.0518 110.297 32.9404 110.602 32.7178C110.912 32.4951 111.167 32.0879 111.366 31.4961L111.727 30.5293L108.334 21.125H110.109L112.482 28.2529ZM125.93 25.9854C125.93 27.4326 125.599 28.5986 124.937 29.4834C124.274 30.3682 123.378 30.8105 122.247 30.8105C121.093 30.8105 120.185 30.4443 119.522 29.7119V34.291H117.896V21.125H119.382L119.461 22.1797C120.123 21.3594 121.043 20.9492 122.221 20.9492C123.363 20.9492 124.266 21.3799 124.928 22.2412C125.596 23.1025 125.93 24.3008 125.93 25.8359V25.9854ZM124.304 25.8008C124.304 24.7285 124.075 23.8818 123.618 23.2607C123.161 22.6396 122.534 22.3291 121.737 22.3291C120.753 22.3291 120.015 22.7656 119.522 23.6387V28.1826C120.009 29.0498 120.753 29.4834 121.755 29.4834C122.534 29.4834 123.152 29.1758 123.609 28.5605C124.072 27.9395 124.304 27.0195 124.304 25.8008ZM131.95 30.8105C130.661 30.8105 129.612 30.3887 128.804 29.5449C127.995 28.6953 127.591 27.5615 127.591 26.1436V25.8447C127.591 24.9014 127.77 24.0605 128.127 23.3223C128.49 22.5781 128.994 21.998 129.639 21.582C130.289 21.1602 130.992 20.9492 131.748 20.9492C132.984 20.9492 133.945 21.3564 134.631 22.1709C135.316 22.9854 135.659 24.1514 135.659 25.6689V26.3457H129.217C129.24 27.2832 129.513 28.042 130.034 28.6221C130.562 29.1963 131.229 29.4834 132.038 29.4834C132.612 29.4834 133.099 29.3662 133.497 29.1318C133.896 28.8975 134.244 28.5869 134.543 28.2002L135.536 28.9736C134.739 30.1982 133.544 30.8105 131.95 30.8105ZM131.748 22.2852C131.092 22.2852 130.541 22.5254 130.096 23.0059C129.65 23.4805 129.375 24.1484 129.27 25.0098H134.033V24.8867C133.986 24.0605 133.764 23.4219 133.365 22.9707C132.967 22.5137 132.428 22.2852 131.748 22.2852Z" fill="#030303"/>
<path fill-rule="evenodd" clip-rule="evenodd" d="M23.3333 21.4167H27.5V19.75H23.3333V21.4167ZM23.3333 27.25H27.5V25.5833H23.3333V27.25ZM28.3333 31H16.6667C15.75 31 15 30.25 15 29.3333V17.6667C15 16.75 15.75 16 16.6667 16H28.3333C29.25 16 30 16.75 30 17.6667V29.3333C30 30.25 29.25 31 28.3333 31ZM17.5 22.6667H21.6667V18.5H17.5V22.6667ZM18.3333 19.3333H20.8333V21.8333H18.3333V19.3333ZM17.5 28.5H21.6667V24.3333H17.5V28.5ZM18.3333 25.1667H20.8333V27.6667H18.3333V25.1667Z" fill="#030303"/>
</svg>
