<svg width="400" height="45" viewBox="0 0 400 45" fill="none" xmlns="http://www.w3.org/2000/svg">
<path d="M0.5 44.5V0.5H399.5V44.5H0.5Z" fill="white" stroke="#030303"/>
<path d="M376.49 14C374.81 14.0019 373.167 14.5021 371.77 15.4373C370.374 16.3725 369.286 17.7008 368.644 19.2541C368.002 20.8075 367.835 22.5163 368.165 24.1646C368.494 25.8128 369.304 27.3264 370.493 28.5142C371.683 29.7019 373.197 30.5104 374.846 30.8375C376.495 31.1646 378.203 30.9955 379.756 30.3517C381.308 29.7079 382.635 28.6183 383.569 27.2206C384.502 25.8229 385 24.1798 385 22.499C384.999 21.3822 384.779 20.2764 384.351 19.2448C383.923 18.2133 383.296 17.2762 382.505 16.4869C381.715 15.6977 380.777 15.0719 379.745 14.6452C378.713 14.2185 377.607 13.9992 376.49 14ZM376.807 25.7161L372.12 20.7835H381.493L376.807 25.7161Z" fill="#030303"/>
<path d="M55.3271 17.5918H51.2139V29H49.5352V17.5918H45.4307V16.2031H55.3271V17.5918ZM58.7373 29H57.1113V19.4902H58.7373V29ZM56.9795 16.9678C56.9795 16.7041 57.0586 16.4814 57.2168 16.2998C57.3809 16.1182 57.6211 16.0273 57.9375 16.0273C58.2539 16.0273 58.4941 16.1182 58.6582 16.2998C58.8223 16.4814 58.9043 16.7041 58.9043 16.9678C58.9043 17.2314 58.8223 17.4512 58.6582 17.627C58.4941 17.8027 58.2539 17.8906 57.9375 17.8906C57.6211 17.8906 57.3809 17.8027 57.2168 17.627C57.0586 17.4512 56.9795 17.2314 56.9795 16.9678ZM65.1621 27.8486C65.7422 27.8486 66.249 27.6729 66.6826 27.3213C67.1162 26.9697 67.3564 26.5303 67.4033 26.0029H68.9414C68.9121 26.5479 68.7246 27.0664 68.3789 27.5586C68.0332 28.0508 67.5703 28.4434 66.9902 28.7363C66.416 29.0293 65.8066 29.1758 65.1621 29.1758C63.8672 29.1758 62.8359 28.7451 62.0684 27.8838C61.3066 27.0166 60.9258 25.833 60.9258 24.333V24.0605C60.9258 23.1348 61.0957 22.3115 61.4355 21.5908C61.7754 20.8701 62.2617 20.3105 62.8945 19.9121C63.5332 19.5137 64.2861 19.3145 65.1533 19.3145C66.2197 19.3145 67.1045 19.6338 67.8076 20.2725C68.5166 20.9111 68.8945 21.7402 68.9414 22.7598H67.4033C67.3564 22.1445 67.1221 21.6406 66.7002 21.248C66.2842 20.8496 65.7686 20.6504 65.1533 20.6504C64.3271 20.6504 63.6855 20.9492 63.2285 21.5469C62.7773 22.1387 62.5518 22.9971 62.5518 24.1221V24.4297C62.5518 25.5254 62.7773 26.3691 63.2285 26.9609C63.6797 27.5527 64.3242 27.8486 65.1621 27.8486ZM73.4238 24.5967L72.4043 25.6602V29H70.7783V15.5H72.4043V23.665L73.2744 22.6191L76.2363 19.4902H78.2139L74.5137 23.4629L78.6445 29H76.7373L73.4238 24.5967ZM83.6631 29.1758C82.374 29.1758 81.3252 28.7539 80.5166 27.9102C79.708 27.0605 79.3037 25.9268 79.3037 24.5088V24.21C79.3037 23.2666 79.4824 22.4258 79.8398 21.6875C80.2031 20.9434 80.707 20.3633 81.3516 19.9473C82.002 19.5254 82.7051 19.3145 83.4609 19.3145C84.6973 19.3145 85.6582 19.7217 86.3438 20.5361C87.0293 21.3506 87.3721 22.5166 87.3721 24.0342V24.7109H80.9297C80.9531 25.6484 81.2256 26.4072 81.7471 26.9873C82.2744 27.5615 82.9424 27.8486 83.751 27.8486C84.3252 27.8486 84.8115 27.7314 85.21 27.4971C85.6084 27.2627 85.957 26.9521 86.2559 26.5654L87.249 27.3389C86.4521 28.5635 85.2568 29.1758 83.6631 29.1758ZM83.4609 20.6504C82.8047 20.6504 82.2539 20.8906 81.8086 21.3711C81.3633 21.8457 81.0879 22.5137 80.9824 23.375H85.7461V23.252C85.6992 22.4258 85.4766 21.7871 85.0781 21.3359C84.6797 20.8789 84.1406 20.6504 83.4609 20.6504ZM91.4678 17.1875V19.4902H93.2432V20.7471H91.4678V26.6445C91.4678 27.0254 91.5469 27.3125 91.7051 27.5059C91.8633 27.6934 92.1328 27.7871 92.5137 27.7871C92.7012 27.7871 92.959 27.752 93.2871 27.6816V29C92.8594 29.1172 92.4434 29.1758 92.0391 29.1758C91.3125 29.1758 90.7646 28.9561 90.3955 28.5166C90.0264 28.0771 89.8418 27.4531 89.8418 26.6445V20.7471H88.1104V19.4902H89.8418V17.1875H91.4678ZM108.36 17.5918H104.247V29H102.568V17.5918H98.4639V16.2031H108.36V17.5918ZM112.482 26.6182L114.697 19.4902H116.438L112.614 30.4678C112.022 32.0498 111.082 32.8408 109.793 32.8408L109.485 32.8145L108.879 32.7002V31.3818L109.318 31.417C109.869 31.417 110.297 31.3057 110.602 31.083C110.912 30.8604 111.167 30.4531 111.366 29.8613L111.727 28.8945L108.334 19.4902H110.109L112.482 26.6182ZM125.93 24.3506C125.93 25.7979 125.599 26.9639 124.937 27.8486C124.274 28.7334 123.378 29.1758 122.247 29.1758C121.093 29.1758 120.185 28.8096 119.522 28.0771V32.6562H117.896V19.4902H119.382L119.461 20.5449C120.123 19.7246 121.043 19.3145 122.221 19.3145C123.363 19.3145 124.266 19.7451 124.928 20.6064C125.596 21.4678 125.93 22.666 125.93 24.2012V24.3506ZM124.304 24.166C124.304 23.0938 124.075 22.2471 123.618 21.626C123.161 21.0049 122.534 20.6943 121.737 20.6943C120.753 20.6943 120.015 21.1309 119.522 22.0039V26.5479C120.009 27.415 120.753 27.8486 121.755 27.8486C122.534 27.8486 123.152 27.541 123.609 26.9258C124.072 26.3047 124.304 25.3848 124.304 24.166ZM131.95 29.1758C130.661 29.1758 129.612 28.7539 128.804 27.9102C127.995 27.0605 127.591 25.9268 127.591 24.5088V24.21C127.591 23.2666 127.77 22.4258 128.127 21.6875C128.49 20.9434 128.994 20.3633 129.639 19.9473C130.289 19.5254 130.992 19.3145 131.748 19.3145C132.984 19.3145 133.945 19.7217 134.631 20.5361C135.316 21.3506 135.659 22.5166 135.659 24.0342V24.7109H129.217C129.24 25.6484 129.513 26.4072 130.034 26.9873C130.562 27.5615 131.229 27.8486 132.038 27.8486C132.612 27.8486 133.099 27.7314 133.497 27.4971C133.896 27.2627 134.244 26.9521 134.543 26.5654L135.536 27.3389C134.739 28.5635 133.544 29.1758 131.95 29.1758ZM131.748 20.6504C131.092 20.6504 130.541 20.8906 130.096 21.3711C129.65 21.8457 129.375 22.5137 129.27 23.375H134.033V23.252C133.986 22.4258 133.764 21.7871 133.365 21.3359C132.967 20.8789 132.428 20.6504 131.748 20.6504Z" fill="#030303"/>
<path fill-rule="evenodd" clip-rule="evenodd" d="M23.3333 20.4167H27.5V18.75H23.3333V20.4167ZM23.3333 26.25H27.5V24.5833H23.3333V26.25ZM28.3333 30H16.6667C15.75 30 15 29.25 15 28.3333V16.6667C15 15.75 15.75 15 16.6667 15H28.3333C29.25 15 30 15.75 30 16.6667V28.3333C30 29.25 29.25 30 28.3333 30ZM17.5 21.6667H21.6667V17.5H17.5V21.6667ZM18.3333 18.3333H20.8333V20.8333H18.3333V18.3333ZM17.5 27.5H21.6667V23.3333H17.5V27.5ZM18.3333 24.1667H20.8333V26.6667H18.3333V24.1667Z" fill="#030303"/>
</svg>
