<svg width="530" height="46" viewBox="0 0 530 46" fill="none" xmlns="http://www.w3.org/2000/svg">
<path d="M0.5 44.9626V1.08398H529.5V44.9626H0.5Z" fill="white" stroke="#030303"/>
<path d="M506.49 14.5461C504.81 14.5481 503.167 15.0469 501.77 15.9796C500.374 16.9123 499.286 18.2369 498.644 19.7861C498.002 21.3353 497.835 23.0395 498.165 24.6833C498.494 26.3271 499.304 27.8367 500.493 29.0212C501.683 30.2057 503.197 31.012 504.846 31.3382C506.495 31.6644 508.203 31.4958 509.756 30.8538C511.308 30.2117 512.635 29.1251 513.569 27.7311C514.502 26.3371 515 24.6985 515 23.0223C514.999 21.9084 514.779 20.8056 514.351 19.7769C513.923 18.7481 513.296 17.8135 512.505 17.0264C511.715 16.2393 510.777 15.6152 509.745 15.1896C508.713 14.764 507.607 14.5454 506.49 14.5461ZM506.807 26.2306L502.12 21.3113H511.493L506.807 26.2306Z" fill="#030303"/>
<path d="M55.3271 18.1406H51.2139V29.5488H49.5352V18.1406H45.4307V16.752H55.3271V18.1406ZM58.7373 29.5488H57.1113V20.0391H58.7373V29.5488ZM56.9795 17.5166C56.9795 17.2529 57.0586 17.0303 57.2168 16.8486C57.3809 16.667 57.6211 16.5762 57.9375 16.5762C58.2539 16.5762 58.4941 16.667 58.6582 16.8486C58.8223 17.0303 58.9043 17.2529 58.9043 17.5166C58.9043 17.7803 58.8223 18 58.6582 18.1758C58.4941 18.3516 58.2539 18.4395 57.9375 18.4395C57.6211 18.4395 57.3809 18.3516 57.2168 18.1758C57.0586 18 56.9795 17.7803 56.9795 17.5166ZM65.1621 28.3975C65.7422 28.3975 66.249 28.2217 66.6826 27.8701C67.1162 27.5186 67.3564 27.0791 67.4033 26.5518H68.9414C68.9121 27.0967 68.7246 27.6152 68.3789 28.1074C68.0332 28.5996 67.5703 28.9922 66.9902 29.2852C66.416 29.5781 65.8066 29.7246 65.1621 29.7246C63.8672 29.7246 62.8359 29.2939 62.0684 28.4326C61.3066 27.5654 60.9258 26.3818 60.9258 24.8818V24.6094C60.9258 23.6836 61.0957 22.8604 61.4355 22.1396C61.7754 21.4189 62.2617 20.8594 62.8945 20.4609C63.5332 20.0625 64.2861 19.8633 65.1533 19.8633C66.2197 19.8633 67.1045 20.1826 67.8076 20.8213C68.5166 21.46 68.8945 22.2891 68.9414 23.3086H67.4033C67.3564 22.6934 67.1221 22.1895 66.7002 21.7969C66.2842 21.3984 65.7686 21.1992 65.1533 21.1992C64.3271 21.1992 63.6855 21.498 63.2285 22.0957C62.7773 22.6875 62.5518 23.5459 62.5518 24.6709V24.9785C62.5518 26.0742 62.7773 26.918 63.2285 27.5098C63.6797 28.1016 64.3242 28.3975 65.1621 28.3975ZM73.4238 25.1455L72.4043 26.209V29.5488H70.7783V16.0488H72.4043V24.2139L73.2744 23.168L76.2363 20.0391H78.2139L74.5137 24.0117L78.6445 29.5488H76.7373L73.4238 25.1455ZM83.6631 29.7246C82.374 29.7246 81.3252 29.3027 80.5166 28.459C79.708 27.6094 79.3037 26.4756 79.3037 25.0576V24.7588C79.3037 23.8154 79.4824 22.9746 79.8398 22.2363C80.2031 21.4922 80.707 20.9121 81.3516 20.4961C82.002 20.0742 82.7051 19.8633 83.4609 19.8633C84.6973 19.8633 85.6582 20.2705 86.3438 21.085C87.0293 21.8994 87.3721 23.0654 87.3721 24.583V25.2598H80.9297C80.9531 26.1973 81.2256 26.9561 81.7471 27.5361C82.2744 28.1104 82.9424 28.3975 83.751 28.3975C84.3252 28.3975 84.8115 28.2803 85.21 28.0459C85.6084 27.8115 85.957 27.501 86.2559 27.1143L87.249 27.8877C86.4521 29.1123 85.2568 29.7246 83.6631 29.7246ZM83.4609 21.1992C82.8047 21.1992 82.2539 21.4395 81.8086 21.9199C81.3633 22.3945 81.0879 23.0625 80.9824 23.9238H85.7461V23.8008C85.6992 22.9746 85.4766 22.3359 85.0781 21.8848C84.6797 21.4277 84.1406 21.1992 83.4609 21.1992ZM91.4678 17.7363V20.0391H93.2432V21.2959H91.4678V27.1934C91.4678 27.5742 91.5469 27.8613 91.7051 28.0547C91.8633 28.2422 92.1328 28.3359 92.5137 28.3359C92.7012 28.3359 92.959 28.3008 93.2871 28.2305V29.5488C92.8594 29.666 92.4434 29.7246 92.0391 29.7246C91.3125 29.7246 90.7646 29.5049 90.3955 29.0654C90.0264 28.626 89.8418 28.002 89.8418 27.1934V21.2959H88.1104V20.0391H89.8418V17.7363H91.4678ZM108.36 18.1406H104.247V29.5488H102.568V18.1406H98.4639V16.752H108.36V18.1406ZM112.482 27.167L114.697 20.0391H116.438L112.614 31.0166C112.022 32.5986 111.082 33.3896 109.793 33.3896L109.485 33.3633L108.879 33.249V31.9307L109.318 31.9658C109.869 31.9658 110.297 31.8545 110.602 31.6318C110.912 31.4092 111.167 31.002 111.366 30.4102L111.727 29.4434L108.334 20.0391H110.109L112.482 27.167ZM125.93 24.8994C125.93 26.3467 125.599 27.5127 124.937 28.3975C124.274 29.2822 123.378 29.7246 122.247 29.7246C121.093 29.7246 120.185 29.3584 119.522 28.626V33.2051H117.896V20.0391H119.382L119.461 21.0938C120.123 20.2734 121.043 19.8633 122.221 19.8633C123.363 19.8633 124.266 20.2939 124.928 21.1553C125.596 22.0166 125.93 23.2148 125.93 24.75V24.8994ZM124.304 24.7148C124.304 23.6426 124.075 22.7959 123.618 22.1748C123.161 21.5537 122.534 21.2432 121.737 21.2432C120.753 21.2432 120.015 21.6797 119.522 22.5527V27.0967C120.009 27.9639 120.753 28.3975 121.755 28.3975C122.534 28.3975 123.152 28.0898 123.609 27.4746C124.072 26.8535 124.304 25.9336 124.304 24.7148ZM131.95 29.7246C130.661 29.7246 129.612 29.3027 128.804 28.459C127.995 27.6094 127.591 26.4756 127.591 25.0576V24.7588C127.591 23.8154 127.77 22.9746 128.127 22.2363C128.49 21.4922 128.994 20.9121 129.639 20.4961C130.289 20.0742 130.992 19.8633 131.748 19.8633C132.984 19.8633 133.945 20.2705 134.631 21.085C135.316 21.8994 135.659 23.0654 135.659 24.583V25.2598H129.217C129.24 26.1973 129.513 26.9561 130.034 27.5361C130.562 28.1104 131.229 28.3975 132.038 28.3975C132.612 28.3975 133.099 28.2803 133.497 28.0459C133.896 27.8115 134.244 27.501 134.543 27.1143L135.536 27.8877C134.739 29.1123 133.544 29.7246 131.95 29.7246ZM131.748 21.1992C131.092 21.1992 130.541 21.4395 130.096 21.9199C129.65 22.3945 129.375 23.0625 129.27 23.9238H134.033V23.8008C133.986 22.9746 133.764 22.3359 133.365 21.8848C132.967 21.4277 132.428 21.1992 131.748 21.1992Z" fill="#030303"/>
<g clip-path="url(#clip0)">
<path fill-rule="evenodd" clip-rule="evenodd" d="M23.3333 22.4167H27.5V20.75H23.3333V22.4167ZM23.3333 28.25H27.5V26.5833H23.3333V28.25ZM28.3333 32H16.6667C15.75 32 15 31.25 15 30.3333V18.6667C15 17.75 15.75 17 16.6667 17H28.3333C29.25 17 30 17.75 30 18.6667V30.3333C30 31.25 29.25 32 28.3333 32ZM17.5 23.6667H21.6667V19.5H17.5V23.6667ZM18.3333 20.3333H20.8333V22.8333H18.3333V20.3333ZM17.5 29.5H21.6667V25.3333H17.5V29.5ZM18.3333 26.1667H20.8333V28.6667H18.3333V26.1667Z" fill="#030303"/>
</g>
<defs>
<clipPath id="clip0">
<rect width="15" height="14.9595" fill="white" transform="translate(15 15.5435)"/>
</clipPath>
</defs>
</svg>
