<svg width="251" height="46" viewBox="0 0 251 46" fill="none" xmlns="http://www.w3.org/2000/svg">
<path d="M0.5 44.6638V0.785156H250.5V44.6638H0.5Z" fill="white" stroke="#030303"/>
<path d="M55.3271 17.8418H51.2139V29.25H49.5352V17.8418H45.4307V16.4531H55.3271V17.8418ZM58.7373 29.25H57.1113V19.7402H58.7373V29.25ZM56.9795 17.2178C56.9795 16.9541 57.0586 16.7314 57.2168 16.5498C57.3809 16.3682 57.6211 16.2773 57.9375 16.2773C58.2539 16.2773 58.4941 16.3682 58.6582 16.5498C58.8223 16.7314 58.9043 16.9541 58.9043 17.2178C58.9043 17.4814 58.8223 17.7012 58.6582 17.877C58.4941 18.0527 58.2539 18.1406 57.9375 18.1406C57.6211 18.1406 57.3809 18.0527 57.2168 17.877C57.0586 17.7012 56.9795 17.4814 56.9795 17.2178ZM62.877 19.7402L62.9209 20.7949C63.6182 19.9746 64.5586 19.5645 65.7422 19.5645C67.0723 19.5645 67.9775 20.0742 68.458 21.0938C68.7744 20.6367 69.1846 20.2676 69.6885 19.9863C70.1982 19.7051 70.7988 19.5645 71.4902 19.5645C73.5762 19.5645 74.6367 20.6689 74.6719 22.8779V29.25H73.0459V22.9746C73.0459 22.2949 72.8906 21.7881 72.5801 21.4541C72.2695 21.1143 71.748 20.9443 71.0156 20.9443C70.4121 20.9443 69.9111 21.126 69.5127 21.4893C69.1143 21.8467 68.8828 22.3301 68.8184 22.9395V29.25H67.1836V23.0186C67.1836 21.6357 66.5068 20.9443 65.1533 20.9443C64.0869 20.9443 63.3574 21.3984 62.9648 22.3066V29.25H61.3389V19.7402H62.877ZM81.0791 29.4258C79.79 29.4258 78.7412 29.0039 77.9326 28.1602C77.124 27.3105 76.7197 26.1768 76.7197 24.7588V24.46C76.7197 23.5166 76.8984 22.6758 77.2559 21.9375C77.6191 21.1934 78.123 20.6133 78.7676 20.1973C79.418 19.7754 80.1211 19.5645 80.877 19.5645C82.1133 19.5645 83.0742 19.9717 83.7598 20.7861C84.4453 21.6006 84.7881 22.7666 84.7881 24.2842V24.9609H78.3457C78.3691 25.8984 78.6416 26.6572 79.1631 27.2373C79.6904 27.8115 80.3584 28.0986 81.167 28.0986C81.7412 28.0986 82.2275 27.9814 82.626 27.7471C83.0244 27.5127 83.373 27.2021 83.6719 26.8154L84.665 27.5889C83.8682 28.8135 82.6729 29.4258 81.0791 29.4258ZM80.877 20.9004C80.2207 20.9004 79.6699 21.1406 79.2246 21.6211C78.7793 22.0957 78.5039 22.7637 78.3984 23.625H83.1621V23.502C83.1152 22.6758 82.8926 22.0371 82.4941 21.5859C82.0957 21.1289 81.5566 20.9004 80.877 20.9004Z" fill="#030303"/>
<path d="M227.49 14.2476C225.81 14.2495 224.167 14.7483 222.77 15.681C221.374 16.6137 220.286 17.9383 219.644 19.4875C219.002 21.0367 218.835 22.7409 219.165 24.3847C219.494 26.0285 220.304 27.5381 221.493 28.7226C222.683 29.9071 224.197 30.7135 225.846 31.0396C227.495 31.3658 229.203 31.1973 230.756 30.5552C232.308 29.9132 233.635 28.8265 234.569 27.4325C235.502 26.0385 236 24.3999 236 22.7237C235.999 21.6099 235.779 20.507 235.351 19.4783C234.923 18.4495 234.296 17.5149 233.505 16.7278C232.715 15.9407 231.777 15.3166 230.745 14.891C229.713 14.4654 228.607 14.2468 227.49 14.2476ZM227.807 25.9321L223.12 21.0127H232.493L227.807 25.9321Z" fill="#030303"/>
<path d="M22.4914 15.2446C21.0084 15.2463 19.5592 15.6865 18.3269 16.5094C17.0946 17.3324 16.1347 18.5012 15.5684 19.8681C15.002 21.2351 14.8548 22.7388 15.1452 24.1892C15.4357 25.6396 16.1507 26.9716 17.2 28.0167C18.2494 29.0619 19.5858 29.7734 21.0405 30.0612C22.4952 30.349 24.0028 30.2002 25.3727 29.6337C26.7426 29.0672 27.9134 28.1084 28.737 26.8784C29.5607 25.6484 30.0002 24.2026 30 22.7236C29.9994 21.7408 29.8048 20.7677 29.4271 19.86C29.0495 18.9522 28.4962 18.1276 27.799 17.4331C27.1017 16.7386 26.2741 16.1879 25.3634 15.8124C24.4528 15.4369 23.4769 15.244 22.4914 15.2446ZM25.4004 25.2368C25.3273 25.3387 25.2166 25.4076 25.0926 25.4281C24.9686 25.4487 24.8415 25.4193 24.7393 25.3464L21.9548 23.3658V19.1699C21.9492 19.1047 21.9573 19.039 21.9785 18.9771C21.9997 18.9151 22.0335 18.8582 22.0779 18.81C22.1223 18.7618 22.1763 18.7233 22.2364 18.697C22.2965 18.6706 22.3614 18.657 22.427 18.657C22.4927 18.657 22.5576 18.6706 22.6177 18.697C22.6778 18.7233 22.7317 18.7618 22.7761 18.81C22.8205 18.8582 22.8544 18.9151 22.8756 18.9771C22.8968 19.039 22.9048 19.1047 22.8993 19.1699V22.8811L25.2862 24.58C25.3372 24.6154 25.3808 24.6604 25.4143 24.7125C25.4479 24.7647 25.4709 24.8229 25.4819 24.8839C25.4929 24.9449 25.4917 25.0075 25.4785 25.068C25.4652 25.1285 25.4402 25.1859 25.4047 25.2368H25.4004Z" fill="#030303"/>
</svg>
