<svg width="360" height="46" viewBox="0 0 360 46" fill="none" xmlns="http://www.w3.org/2000/svg">
<path d="M0.5 44.9039V0.852539H359.5V44.9039H0.5Z" fill="white" stroke="#030303"/>
<path d="M55.3271 19.5376H51.2139V30.9458H49.5352V19.5376H45.4307V18.1489H55.3271V19.5376ZM58.7373 30.9458H57.1113V21.436H58.7373V30.9458ZM56.9795 18.9136C56.9795 18.6499 57.0586 18.4272 57.2168 18.2456C57.3809 18.064 57.6211 17.9731 57.9375 17.9731C58.2539 17.9731 58.4941 18.064 58.6582 18.2456C58.8223 18.4272 58.9043 18.6499 58.9043 18.9136C58.9043 19.1772 58.8223 19.397 58.6582 19.5728C58.4941 19.7485 58.2539 19.8364 57.9375 19.8364C57.6211 19.8364 57.3809 19.7485 57.2168 19.5728C57.0586 19.397 56.9795 19.1772 56.9795 18.9136ZM62.877 21.436L62.9209 22.4907C63.6182 21.6704 64.5586 21.2603 65.7422 21.2603C67.0723 21.2603 67.9775 21.77 68.458 22.7896C68.7744 22.3325 69.1846 21.9634 69.6885 21.6821C70.1982 21.4009 70.7988 21.2603 71.4902 21.2603C73.5762 21.2603 74.6367 22.3647 74.6719 24.5737V30.9458H73.0459V24.6704C73.0459 23.9907 72.8906 23.4839 72.5801 23.1499C72.2695 22.8101 71.748 22.6401 71.0156 22.6401C70.4121 22.6401 69.9111 22.8218 69.5127 23.1851C69.1143 23.5425 68.8828 24.0259 68.8184 24.6353V30.9458H67.1836V24.7144C67.1836 23.3315 66.5068 22.6401 65.1533 22.6401C64.0869 22.6401 63.3574 23.0942 62.9648 24.0024V30.9458H61.3389V21.436H62.877ZM81.0791 31.1216C79.79 31.1216 78.7412 30.6997 77.9326 29.856C77.124 29.0063 76.7197 27.8726 76.7197 26.4546V26.1558C76.7197 25.2124 76.8984 24.3716 77.2559 23.6333C77.6191 22.8892 78.123 22.3091 78.7676 21.8931C79.418 21.4712 80.1211 21.2603 80.877 21.2603C82.1133 21.2603 83.0742 21.6675 83.7598 22.4819C84.4453 23.2964 84.7881 24.4624 84.7881 25.98V26.6567H78.3457C78.3691 27.5942 78.6416 28.353 79.1631 28.9331C79.6904 29.5073 80.3584 29.7944 81.167 29.7944C81.7412 29.7944 82.2275 29.6772 82.626 29.4429C83.0244 29.2085 83.373 28.8979 83.6719 28.5112L84.665 29.2847C83.8682 30.5093 82.6729 31.1216 81.0791 31.1216ZM80.877 22.5962C80.2207 22.5962 79.6699 22.8364 79.2246 23.3169C78.7793 23.7915 78.5039 24.4595 78.3984 25.3208H83.1621V25.1978C83.1152 24.3716 82.8926 23.7329 82.4941 23.2817C82.0957 22.8247 81.5566 22.5962 80.877 22.5962Z" fill="#030303"/>
<path d="M336.49 14.3682C334.81 14.3701 333.167 14.8708 331.77 15.8071C330.374 16.7434 329.286 18.0731 328.644 19.6283C328.002 21.1835 327.835 22.8942 328.165 24.5443C328.494 26.1944 329.304 27.7098 330.493 28.8989C331.683 30.088 333.197 30.8974 334.846 31.2249C336.495 31.5523 338.203 31.3831 339.756 30.7386C341.308 30.0941 342.635 29.0032 343.569 27.6039C344.502 26.2045 345 24.5596 345 22.8769C344.999 21.7588 344.779 20.6517 344.351 19.619C343.923 18.5863 343.296 17.6481 342.505 16.8579C341.715 16.0678 340.777 15.4413 339.745 15.0141C338.713 14.5869 337.607 14.3674 336.49 14.3682ZM336.807 26.0976L332.12 21.1594H341.493L336.807 26.0976Z" fill="#030303"/>
<path d="M22.4914 15.3696C21.0084 15.3713 19.5592 15.8132 18.3269 16.6393C17.0946 17.4654 16.1347 18.6387 15.5684 20.0109C15.002 21.3831 14.8548 22.8926 15.1452 24.3486C15.4357 25.8046 16.1507 27.1417 17.2 28.1909C18.2494 29.2401 19.5858 29.9543 21.0405 30.2432C22.4952 30.5321 24.0028 30.3828 25.3727 29.8141C26.7426 29.2454 27.9134 28.2829 28.737 27.0482C29.5607 25.8135 30.0002 24.3621 30 22.8773C29.9994 21.8908 29.8048 20.914 29.4271 20.0027C29.0495 19.0915 28.4962 18.2637 27.799 17.5665C27.1017 16.8693 26.2741 16.3165 25.3634 15.9396C24.4528 15.5626 23.4769 15.369 22.4914 15.3696ZM25.4004 25.4002C25.3273 25.5026 25.2166 25.5717 25.0926 25.5923C24.9686 25.613 24.8415 25.5834 24.7393 25.5103L21.9548 23.522V19.31C21.9492 19.2445 21.9573 19.1786 21.9785 19.1164C21.9997 19.0542 22.0335 18.9971 22.0779 18.9487C22.1223 18.9003 22.1763 18.8617 22.2364 18.8352C22.2965 18.8088 22.3614 18.7952 22.427 18.7952C22.4927 18.7952 22.5576 18.8088 22.6177 18.8352C22.6778 18.8617 22.7317 18.9003 22.7761 18.9487C22.8205 18.9971 22.8544 19.0542 22.8756 19.1164C22.8968 19.1786 22.9048 19.2445 22.8993 19.31V23.0355L25.2862 24.7409C25.3372 24.7764 25.3808 24.8216 25.4143 24.874C25.4479 24.9263 25.4709 24.9848 25.4819 25.046C25.4929 25.1073 25.4917 25.17 25.4785 25.2308C25.4652 25.2916 25.4402 25.3492 25.4047 25.4002H25.4004Z" fill="#030303"/>
</svg>
